<?xml version="1.0" encoding="utf-8"?>
<!-- Generator: Adobe Illustrator 18.0.0, SVG Export Plug-In . SVG Version: 6.00 Build 0)  -->
<!DOCTYPE svg PUBLIC "-//W3C//DTD SVG 1.1//EN" "http://www.w3.org/Graphics/SVG/1.1/DTD/svg11.dtd">
<svg version="1.1" id="Layer_1" xmlns="http://www.w3.org/2000/svg" xmlns:xlink="http://www.w3.org/1999/xlink" x="0px" y="0px"
	 viewBox="0 0 540 540" enable-background="new 0 0 540 540" xml:space="preserve">
<g id="Layer_x0020_1">
	<rect x="-55.8" y="-55.8" fill="none" width="650.8" height="650.8"/>
	<g id="_2419942821424">
		<path fill="#99c361" d="M530.5,334.7c-35.9,144.1-181.9,231.9-326,195.8C60.4,494.6-27.3,348.7,8.7,204.5
			C44.6,60.4,190.6-27.2,334.7,8.7S566.5,190.6,530.5,334.7L530.5,334.7z"/>
		<g>
			<path fill="#FFFFFF" d="M360.4,180.7c-11.9-34.2-44.9-38.7-83.9-32.8l-11.7-48.6l-29.5,7.1l11.4,47.4c-7.8,1.8-15.7,3.9-23.5,6
				l-11.5-47.6l-29.5,7.2l11.6,48.5l-59.6,14.4l7.6,31.7c0,0,21.7-5.7,21.4-5.2c12.1-3,17.6,3.1,20.2,8.9l32,133
				c0.4,3.9-0.3,10.5-8.7,12.5c0.4,0.3-21.5,5.2-21.5,5.2l2.6,36.7l59.7-14.1l11.8,49.1l29.6-7.1l-11.7-48.6
				c8.2-1.8,16.1-3.6,23.7-5.5l11.6,48.3l29.6-7.1l-11.8-49c49-14.8,80.8-35.8,73.8-83.5c-5.6-38.4-27.2-50.9-57.1-50.9
				C362,223.7,369,205.7,360.4,180.7L360.4,180.7z M344.3,295.7c8.9,36.7-55,47.7-75.1,52.6l-15.6-65.1
				C273.7,278.4,335.1,257.5,344.3,295.7L344.3,295.7z M308.4,207.1c8.1,33.5-45.3,42.3-62,46.2l-14.2-59.1
				C248.9,190.3,300,172.3,308.4,207.1L308.4,207.1z M308.4,207.1L308.4,207.1L308.4,207.1z"/>
		</g>
	</g>
</g>
</svg>
