<svg xmlns="http://www.w3.org/2000/svg" width="2000" height="2000" viewBox="0 0 2000 2000"><g><path d="M1170.42,372.12a609,609,0,0,0-992-193.62c-85.53,85.55-85.51,224.29,0,309.84s224.22,85.53,309.75,0a171.57,171.57,0,0,1,54.45-36.77,172.51,172.51,0,0,1,133.12,0,172.84,172.84,0,0,1,75.49,62.27,169.23,169.23,0,0,1,29.1,95.57c0,121,98.07,219.07,219,219.07s219-98.08,219-219.07A608.44,608.44,0,0,0,1170.42,372.12Z" fill="#00ffba"/><g fill="#00cfab"><path d="m999.36 1171.54c-121 0-219 98.1-219 219.1a170.1 170.1 0 0 1 -13.36 66.55 172.59 172.59 0 0 1 -62.25 75.51 168.56 168.56 0 0 1 -44.57 21.46 170.74 170.74 0 0 1 -174 -44.58l-.12-.13a171.17 171.17 0 0 1 -35.19 -53.69 172.54 172.54 0 0 1 .59 -131.69 172.82 172.82 0 0 1 62.25 -75.54 169.62 169.62 0 0 1 95.54 -29.11c121 0 219-98.07 219-219.07s-98.07-219.09-219-219.09a609.29 609.29 0 0 0 -438.58 1032.37 609.08 609.08 0 0 0 1047.7 -423c.02-120.99-98.05-219.09-219.01-219.09"/><path d="M1932.9,331.16a610.89,610.89,0,0,0-178.23-210.52c-.15-.12-.28-.25-.44-.36A609.09,609.09,0,0,0,781.61,609.39c0,121,98.07,219.07,219,219.07s219-98.07,219-219.07A170,170,0,0,1,1233,542.81a172.58,172.58,0,0,1,62.25-75.51,168.58,168.58,0,0,1,44.55-21.45,170.72,170.72,0,0,1,152.89,26l0,0a172.87,172.87,0,0,1,50.5,59.56,172.27,172.27,0,0,1,5.35,144.55,172.74,172.74,0,0,1-62.25,75.51,168.91,168.91,0,0,1-44.57,21.46,171.13,171.13,0,0,1-51,7.67c-121,0-219,98.08-219,219.07s98.07,219.1,219,219.1A609.56,609.56,0,0,0,1932.9,331.16Z"/></g><g fill="#00ffba"><path d="M1952,1153.37a608.71,608.71,0,0,0-561.24-372.11c-121,0-219,98.07-219,219.07s98.07,219.09,219,219.09a169.56,169.56,0,0,1,66.56,13.36,172.83,172.83,0,0,1,75.49,62.27,171.91,171.91,0,0,1,16.22,161,171.93,171.93,0,0,1-35.47,53.84h0a172.29,172.29,0,0,1-55.08,38.09,172.49,172.49,0,0,1-134.27.5,172.86,172.86,0,0,1-75.49-62.27,169.72,169.72,0,0,1-29.1-95.57c0-121-98.07-219.09-219-219.09s-219,98.1-219,219.09a609,609,0,0,0,1046.1,424.63l.05,0A610,610,0,0,0,1952,1153.37Z"/><path d="M609.19,780.58a169.51,169.51,0,0,1-66.56-13.36,172.82,172.82,0,0,1-75.49-62.27,170.83,170.83,0,0,1,21-216.61c85.55-85.56,85.55-224.29,0-309.84s-224.22-85.58-309.75,0A609.19,609.19,0,0,0,609.19,1218.75c121,0,219-98.08,219-219.07S730.15,780.58,609.19,780.58Z"/></g></g></svg>