<svg xmlns="http://www.w3.org/2000/svg" viewBox="0 0 2000 1995.84" width="2000" height="2000"><path d="M114.87,999.53a895,895,0,0,0,15.08,163l-111.2,20.76a992.52,992.52,0,0,0,50.56,177.5l105.44-41a885.54,885.54,0,0,0,73.12,146.32l-96.08,59.71a1003.81,1003.81,0,0,0,111.38,147.06l83.52-76.28a894.45,894.45,0,0,0,121,110.25l-68.18,90.26a1000.24,1000.24,0,0,0,156.86,97.2l50.44-101.27a882.84,882.84,0,0,0,152.57,59L728.58,1961A996.2,996.2,0,0,0,910,1994.57l10.25-112.65c26.9,2.45,54.31,3.69,81.48,3.69,27.44,0,55.13-1.27,82.29-3.76l10.36,112.64a996.15,996.15,0,0,0,181.4-33.77l-30.95-108.83a882.9,882.9,0,0,0,152.48-59.16l50.53,101.22a1000.28,1000.28,0,0,0,156.75-97.32l-68.25-90.2a894.47,894.47,0,0,0,120.93-110.35l83.59,76.22a1003.8,1003.8,0,0,0,111.26-147.18L1756,1465.49a885.67,885.67,0,0,0,73-146.43l105.48,40.87a992.52,992.52,0,0,0,50.4-177.55l-111-20.65a895.19,895.19,0,0,0,15.13-163v-1.61l112.93-.19a1005.34,1005.34,0,0,0-17.26-183.64l-111.23,20.85a882.43,882.43,0,0,0-45-157.25l105.4-41.07a996.37,996.37,0,0,0-82.63-165l-96,59.8a892.7,892.7,0,0,0-98.94-130.4l83.45-76.36a1005.81,1005.81,0,0,0-136.49-124.11l-68.1,90.32A889.26,889.26,0,0,0,1395.91,204l50.35-101.32A993.14,993.14,0,0,0,1274,36.26l-30.74,108.88a886,886,0,0,0-160.87-29.66L1092.57,2.81q-44.87-4-90.83-4.08-47.32,0-93.54,4.33L918.66,115.7a885.87,885.87,0,0,0-160.79,30.1L726.83,37a993.17,993.17,0,0,0-172,66.93L605.44,205.1A889.42,889.42,0,0,0,466.5,291.52l-68.33-90.14A1005.84,1005.84,0,0,0,262,325.84L345.66,402a892.61,892.61,0,0,0-98.6,130.67l-96.18-59.54A996.22,996.22,0,0,0,68.66,638.37l105.52,40.78a882.37,882.37,0,0,0-44.52,157.37L18.43,816A1005.6,1005.6,0,0,0,1.74,998.73c0,0.3,0,.6,0,0.9Zm988,700.52-6-42.11a661.31,661.31,0,0,0,181.79-53.37l17.71,38.68A703.81,703.81,0,0,1,1102.84,1700Zm607.38-701.37a709.44,709.44,0,0,1-28.5,199.62l-40.82-12a666.81,666.81,0,0,0,26.79-187.6v-1.1l42.54-.11v1.15Zm-113-383.92A705.06,705.06,0,0,1,1681.39,798l-40.8,12a662.54,662.54,0,0,0-79.07-172.21Zm-35.13,743.92,35.77,23a711.56,711.56,0,0,1-132.06,152.36L1438,1501.94A669.05,669.05,0,0,0,1562.12,1358.68Zm-266.88-1005a708.65,708.65,0,0,1,169.7,108.91l-27.83,32.18a666.13,666.13,0,0,0-159.52-102.37ZM1188,824h99.11L1416,1014.1V824h101v344H1416.48L1288,978.94V1168H1188V824ZM1001.74,290.25a717.11,717.11,0,0,1,99.89,7l-5.95,42.12a674.66,674.66,0,0,0-189.57.24l-6.05-42.11A717.09,717.09,0,0,1,1001.74,290.25ZM797,824H903v209.59c0,18.74,5.29,33.37,15.68,43.91s24.85,15.81,43.29,15.81c18.28,0,32.83-5.19,43.23-15.57s15.8-25.1,15.8-44.14V824h106v204.71a172.5,172.5,0,0,1-9.72,57.5,124.47,124.47,0,0,1-29.88,47.31q-20.27,20.26-42.6,28.46-30.94,11.47-74.32,11.48a468.15,468.15,0,0,1-54.74-3.51q-29.65-3.52-49.58-13.94t-36.45-29.63c-11-12.8-18.68-26-22.75-39.58-6.56-21.86-10-41.22-10-58.08V824Zm110.25,834-6,42.12a703.88,703.88,0,0,1-193.56-56.64l17.67-38.7A661.35,661.35,0,0,0,907.25,1658ZM706.63,354.46l17.74,38.67A666.2,666.2,0,0,0,565.12,495.89l-27.91-32.11A708.71,708.71,0,0,1,706.63,354.46ZM487,824H749v74H594v60H727v69H594v141H487V824Zm79,678.3-27.85,32.15a711.54,711.54,0,0,1-132.18-152.25l35.75-23.05A669,669,0,0,0,566,1502.3Zm-160.68-886,35.79,23a662.45,662.45,0,0,0-78.63,172.41L321.6,799.73A705,705,0,0,1,405.28,616.25Zm-69.47,383a666.73,666.73,0,0,0,26.94,187.59l-40.81,12a709.26,709.26,0,0,1-28.67-199.55Z" fill="#f1385b"/></svg>