<svg xmlns="http://www.w3.org/2000/svg" width="1153" height="1996" viewBox="0 0 1153 1996"><defs><linearGradient id="0" y1="515" x2="0" y2="1473" gradientUnits="userSpaceOnUse"><stop stop-color="#c1dfd2"/><stop offset="1" stop-color="#b5d5d8"/></linearGradient><linearGradient id="1" y1="833" x2="0" y2="1946" gradientUnits="userSpaceOnUse"><stop stop-color="#2d9b8b"/><stop offset="1" stop-color="#047d95"/></linearGradient><linearGradient id="2" y1="50" x2="0" y2="1946" gradientUnits="userSpaceOnUse"><stop stop-color="#79c29b"/><stop offset="1" stop-color="#2d94af"/></linearGradient></defs><path fill="#eef6f2" d="m474 50l629 465-629 318v-783"/><path fill="url(#0)" d="m1103 515l-629 318 599 640 30-958"/><path fill="url(#1)" d="m491 1946l-17-1113 599 640-582 473"/><path fill="url(#2)" d="m474 833v-783l-424 476 97 940 344 480-17-1113"/><g fill="none" stroke="#fff" stroke-width="20" stroke-miterlimit="10"><path d="m474 50v783"/><path d="m1103 515l-629 318"/><path d="m1073 1473l-599-640"/><path d="m491 1946l-17-1113"/><path d="m147 1466l344 480"/><path d="m47 526l100 940"/><path d="M 474,50 47,526"/><path d="M 1103,515 474,50"/><path d="m1073 1473l30-958"/><path d="m491 1946l582-473"/></g><g transform="translate(-431-4)"><path d="M905 94a40 40 0 1 1 40 -40A40 40 0 0 1 905 94" fill="#414142"/><path d="M905,24a30,30,0,1,1-30,30,30,30,0,0,1,30-30m0-20a50,50,0,1,0,50,50A50.06,50.06,0,0,0,905,4Z" fill="#fff"/><path d="M481 570a40 40 0 1 1 40 -40A40 40 0 0 1 481 570" fill="#414142"/><path d="M481,500a30,30,0,1,1-30,30,30,30,0,0,1,30-30m0-20a50,50,0,1,0,50,50,50.06,50.06,0,0,0-50-50Z" fill="#fff"/><path d="M578 1510a40 40 0 1 1 40 -40A40 40 0 0 1 578 1510" fill="#414142"/><path d="M578,1440a30,30,0,1,1-30,30,30,30,0,0,1,30-30m0-20a50,50,0,1,0,50,50,50.06,50.06,0,0,0-50-50Z" fill="#fff"/><path d="M1534 559a40 40 0 1 1 40 -40A40 40 0 0 1 1534 559" fill="#414142"/><path d="M1534,489a30,30,0,1,1-30,30,30,30,0,0,1,30-30m0-20a50,50,0,1,0,50,50,50.06,50.06,0,0,0-50-50Z" fill="#fff"/><path d="M905 877a40 40 0 1 1 40 -40A40 40 0 0 1 905 877" fill="#414142"/><path d="M905,807a30,30,0,1,1-30,30,30,30,0,0,1,30-30m0-20a50,50,0,1,0,50,50,50.06,50.06,0,0,0-50-50Z" fill="#fff"/><path d="M922 1990a40 40 0 1 1 40 -40A40 40 0 0 1 922 1990" fill="#414142"/><path d="M922,1920a30,30,0,1,1-30,30,30,30,0,0,1,30-30m0-20a50,50,0,1,0,50,50,50.06,50.06,0,0,0-50-50Z" fill="#fff"/><path d="M1506 1517a40 40 0 1 1 40 -40A40 40 0 0 1 1506 1517" fill="#414142"/><path d="M1506,1447a30,30,0,1,1-30,30,30,30,0,0,1,30-30m0-20a50,50,0,1,0,50,50,50.06,50.06,0,0,0-50-50Z" fill="#fff"/></g></svg>