<svg id="Layer_1" xmlns="http://www.w3.org/2000/svg" viewBox="0 0 82.6 83.9" width="2461" height="2500"><style>.st0,.st1{fill:none;stroke:#1abc9c;stroke-width:3.8254;stroke-linecap:round;stroke-linejoin:round}.st1{stroke:#546979}.st2{fill:#546979}</style><title>128</title><g id="Page-1"><g id="_x31_28"><g id="logo-maker" transform="translate(23 9)"><g id="Path-3-Copy-4-_x2B_-Path-3-Copy-5-Copy" transform="translate(2.187)"><path id="Path-3-Copy-4" class="st0" d="M10.2 46.7V18L-23.2-7.1v53.8"/><path id="Path-3-Copy-5" class="st1" d="M20.5 46.7V18L53.9-7.1v53.8"/></g><path id="Maker" class="st2" d="M-21.7 61.9l6.1 10v.1h1.2v-.1l6.1-10v12.4c0 .2.1.3.2.5.1.1.3.2.5.2s.3-.1.5-.2c.1-.1.2-.3.2-.5V59.5c0-.3-.2-.6-.5-.6-.3-.1-.6 0-.8.3l-6.8 11-6.7-11.1c-.2-.3-.4-.4-.8-.3-.3.1-.5.3-.5.6v14.8c0 .2.1.3.2.5.1.1.3.2.5.2s.3-.1.5-.2c.1-.1.2-.3.2-.5V61.9zm23.3 7.9l3.6-8.6 3.6 8.6H1.6zm-2.5 5.1c.3 0 .5-.1.6-.4l1.4-3.4h8.2l1.4 3.4c.1.3.3.4.6.4.1 0 .2 0 .3-.1.2-.1.3-.2.4-.4.1-.2.1-.3 0-.5l-1.6-3.8-4.6-11s0-.1-.1-.1v-.1h-.1c-.1-.1-.2-.1-.2-.1h-.1-.1-.1c-.1 0-.2 0-.2.1h-.1v.1s0 .1-.1.1L0 70.2-1.6 74c-.1.2-.1.3 0 .5s.2.3.4.4h.3zm19-.3c.1-.1.2-.3.2-.5v-4.3l2-2.1 6.7 7c.1.1.3.2.5.2s.3-.1.5-.2c.1-.1.2-.3.2-.5s-.1-.3-.2-.5l-6.7-7 6.5-6.8c.1-.1.2-.3.2-.5s-.1-.3-.2-.5-.3-.2-.5-.2-.3.1-.5.2l-8.5 8.9v-8.5c0-.2-.1-.3-.2-.5-.1-.1-.3-.2-.5-.2s-.3.1-.5.2c-.1.1-.2.3-.2.5V74c0 .2.1.3.2.5.1.1.3.2.5.2.2.1.4 0 .5-.1zm24.9.3c.2 0 .3-.1.5-.2.1-.1.2-.3.2-.5s-.1-.3-.2-.5c-.1-.1-.3-.2-.5-.2h-8.3v-6.1h6.2c.2 0 .3-.1.5-.2.1-.1.2-.3.2-.5s-.1-.3-.2-.5c-.1-.1-.3-.2-.5-.2h-6.2v-6.1H43c.2 0 .3-.1.5-.2.1-.1.2-.3.2-.5s-.1-.3-.2-.5c-.1-.1-.3-.2-.5-.2h-9c-.2 0-.3.1-.5.2-.1.1-.2.3-.2.5V74c0 .2.1.3.2.5.1.1.3.2.5.2h9zm14.3-9.7c-.6.6-1.4.9-2.3.9h-4.5v-6h4.4c.9 0 1.7.3 2.4.9.7.6 1 1.3 1 2.1 0 .9-.4 1.6-1 2.1zm-7.5-6.4c-.2 0-.3.1-.5.2-.1.1-.2.3-.2.5v14.7c0 .2.1.3.2.5.1.1.3.2.5.2s.3-.1.5-.2c.1-.1.2-.3.2-.5v-6.7h3.8l3.5 7.1c.1.2.3.4.6.4.1 0 .2 0 .3-.1.2-.1.3-.2.3-.4V74l-3.2-6.5c1.1-.2 2.1-.7 2.8-1.5.8-.8 1.1-1.7 1.1-2.8 0-1.2-.5-2.2-1.4-3.1-.9-.8-2-1.3-3.3-1.3h-5.2z"/></g></g></g></svg>