<?xml version="1.0" encoding="UTF-8" standalone="no"?>
<!-- Created with Inkscape (http://www.inkscape.org/) -->

<svg
   xmlns:dc="http://purl.org/dc/elements/1.1/"
   xmlns:cc="http://creativecommons.org/ns#"
   xmlns:rdf="http://www.w3.org/1999/02/22-rdf-syntax-ns#"
   xmlns:svg="http://www.w3.org/2000/svg"
   xmlns="http://www.w3.org/2000/svg"
   xmlns:sodipodi="http://sodipodi.sourceforge.net/DTD/sodipodi-0.dtd"
   xmlns:inkscape="http://www.inkscape.org/namespaces/inkscape"
   width="51.000332"
   height="45.610222"
   viewBox="0 0 13.493838 12.067705"
   version="1.1"
   id="svg6159"
   inkscape:version="0.92.0 r15299"
   sodipodi:docname="qtum.svg">
  <defs
     id="defs6153" />
  <sodipodi:namedview
     id="base"
     pagecolor="#ffffff"
     bordercolor="#666666"
     borderopacity="1.0"
     inkscape:pageopacity="0.0"
     inkscape:pageshadow="2"
     inkscape:zoom="11.947936"
     inkscape:cx="25.500163"
     inkscape:cy="22.80512"
     inkscape:document-units="mm"
     inkscape:current-layer="layer1"
     showgrid="false"
     fit-margin-top="0"
     fit-margin-left="0"
     fit-margin-right="0"
     fit-margin-bottom="0"
     units="px"
     inkscape:window-width="1280"
     inkscape:window-height="744"
     inkscape:window-x="-4"
     inkscape:window-y="-4"
     inkscape:window-maximized="1" />
  <metadata
     id="metadata6156">
    <rdf:RDF>
      <cc:Work
         rdf:about="">
        <dc:format>image/svg+xml</dc:format>
        <dc:type
           rdf:resource="http://purl.org/dc/dcmitype/StillImage" />
        <dc:title></dc:title>
      </cc:Work>
    </rdf:RDF>
  </metadata>
  <g
     inkscape:label="Layer 1"
     inkscape:groupmode="layer"
     id="layer1"
     transform="translate(-99.275915,-153.68797)">
    <path
       inkscape:connector-curvature="0"
       style="fill:#2e9ad0;fill-opacity:1;stroke:none;stroke-width:0.09333913"
       d="m 111.95909,163.91476 c -0.0894,0 -0.16954,0.0164 -0.23859,0.0429 -0.0763,0.0294 -0.14433,0.069 -0.20063,0.11945 l -1.19805,-1.03578 0.92124,-2.84959 c 0.002,0 0.01,0 0.0196,0 0.002,0 0.007,0 0.0131,0 0.12044,0 0.2291,-0.0442 0.32467,-0.13354 0.092,-0.0884 0.13844,-0.2016 0.13844,-0.33887 0,-0.12993 -0.0465,-0.2412 -0.13844,-0.33412 -0.0956,-0.0884 -0.2039,-0.13353 -0.32467,-0.13353 -0.007,0 -0.0131,0 -0.0131,0 -0.01,0 -0.0164,0 -0.0196,0 l -0.80669,-2.49161 c 0.0632,-0.037 0.11586,-0.092 0.15742,-0.16233 0.037,-0.0632 0.0586,-0.13975 0.0622,-0.2291 0,-0.12993 -0.0465,-0.24121 -0.13844,-0.33413 -0.0929,-0.092 -0.20422,-0.13844 -0.33412,-0.13844 -0.0573,0.003 -0.11226,0.0131 -0.16233,0.0295 -0.055,0.0196 -0.10146,0.0488 -0.13844,0.0858 l -2.12882,-1.54174 c 0.01,-0.0262 0.0196,-0.0524 0.0295,-0.0812 0.002,-0.0262 0.003,-0.0596 0.003,-0.0956 0,-0.12993 -0.0465,-0.24121 -0.13844,-0.33412 -0.0956,-0.092 -0.2039,-0.13845 -0.32467,-0.13845 -0.11455,0.007 -0.21371,0.0406 -0.29586,0.10015 -0.0893,0.0668 -0.14433,0.15383 -0.16233,0.2579 h -2.5823 c -0.0229,-0.0943 -0.0776,-0.17902 -0.16234,-0.25299 -0.0861,-0.0694 -0.18262,-0.10506 -0.28637,-0.10506 -0.13353,0 -0.24579,0.0465 -0.33412,0.13845 -0.093,0.0929 -0.13844,0.20422 -0.13844,0.33412 0,0.0357 0.002,0.0681 0.01,0.0956 0.007,0.0294 0.0131,0.056 0.0229,0.0812 l -2.12884,1.54174 c -0.0454,-0.037 -0.0895,-0.0668 -0.13366,-0.0858 -0.0549,-0.0164 -0.11099,-0.0262 -0.16708,-0.0295 -0.13366,0 -0.24582,0.0465 -0.33413,0.13844 -0.0931,0.093 -0.1384,0.20423 -0.1384,0.33413 0,0.0893 0.0203,0.16593 0.062,0.2291 0.037,0.0704 0.0907,0.12535 0.15752,0.16233 h 0.009 l -0.806662,2.47727 c -0.0072,0 -0.01178,0 -0.0144,0 -0.0095,0 -0.01669,0 -0.01898,0 -0.133663,0 -0.245823,0.0465 -0.334124,0.13844 -0.09308,0.093 -0.138408,0.2039 -0.138408,0.33413 0,0.13353 0.04536,0.24579 0.138408,0.33412 0.0883,0.093 0.200461,0.13844 0.334124,0.13844 0,0 0.0024,0 0.0095,0 0.0059,0 0.0108,0 0.0144,0 l 0.816212,2.50117 c -0.074,0.0419 -0.13006,0.0966 -0.16708,0.16233 -0.0418,0.0668 -0.062,0.14433 -0.062,0.2291 0,0.13353 0.0453,0.24579 0.13841,0.33412 0.0883,0.093 0.20046,0.13844 0.33412,0.13844 0.0561,0 0.11216,-0.01 0.16708,-0.0294 0.0442,-0.0164 0.0883,-0.0406 0.13366,-0.0763 l 2.12885,1.53218 c -0.01,0.0295 -0.0164,0.0596 -0.0229,0.0861 -0.007,0.0294 -0.01,0.0622 -0.01,0.0906 0,0.13255 0.0455,0.24448 0.13844,0.33413 0.0884,0.092 0.20062,0.13844 0.33412,0.13844 0.10375,0 0.20063,-0.0347 0.28637,-0.10015 0.0848,-0.0609 0.13975,-0.14662 0.16234,-0.2579 h 2.5823 c 0.0164,0.11095 0.0726,0.19702 0.16233,0.2579 0.0825,0.0655 0.18131,0.10015 0.29586,0.10015 0.12044,0 0.2291,-0.0465 0.32467,-0.13844 0.092,-0.0893 0.13844,-0.20161 0.13844,-0.33413 0,-0.0294 -0.002,-0.0596 -0.003,-0.0906 -0.01,-0.0262 -0.0196,-0.055 -0.0295,-0.0861 l 2.42956,-1.75175 1.18849,1.02623 c -0.0327,0.0478 -0.056,0.10277 -0.0717,0.16233 -0.0196,0.0668 -0.0262,0.12993 -0.0229,0.18622 -0.003,0.18852 0.0632,0.34607 0.20062,0.47735 0.12994,0.13255 0.29129,0.20062 0.48209,0.20062 0.18394,0 0.34368,-0.0681 0.47731,-0.20062 0.12994,-0.13124 0.19703,-0.28867 0.20063,-0.47735 -0.003,-0.1872 -0.0704,-0.3496 -0.20063,-0.48683 -0.13353,-0.12993 -0.29357,-0.19571 -0.47731,-0.19571 z m -1.69448,-6.94499 0.75894,2.35795 c -0.055,0.0327 -0.0979,0.0727 -0.12895,0.11946 -0.0357,0.0455 -0.0609,0.0979 -0.0763,0.15742 h -0.3914 c -0.0196,-0.0821 -0.056,-0.15284 -0.10997,-0.21011 -0.0609,-0.056 -0.12764,-0.10146 -0.20062,-0.13354 z m -0.21961,-0.15284 -0.16233,2.43434 c -0.007,0 -0.0131,0 -0.0131,0 -0.01,0.003 -0.0164,0.007 -0.0196,0.01 l -0.96895,-1.84244 c 0.0465,-0.0347 0.0871,-0.0861 0.11945,-0.15284 0.0262,-0.0596 0.0393,-0.12535 0.0429,-0.19572 0,-0.002 -0.002,-0.0131 -0.003,-0.0334 -0.007,-0.0131 -0.01,-0.0294 -0.003,-0.0478 l 0.78283,-0.33413 c 0.0262,0.0357 0.0596,0.0681 0.10506,0.0956 0.0295,0.0357 0.0691,0.055 0.11455,0.0573 z m -2.63957,2.44389 c -0.007,0.003 -0.0164,0.002 -0.0334,-0.003 -0.0196,-0.002 -0.0357,-0.003 -0.0478,-0.003 -0.0229,0 -0.0455,0.002 -0.0668,0.003 -0.0229,0.007 -0.0465,0.0131 -0.0717,0.0131 l -1.28878,-2.2434 c 0.0229,-0.0164 0.0429,-0.0442 0.0622,-0.0762 0.0164,-0.0262 0.0334,-0.0573 0.0524,-0.0861 l 2.08588,0.26248 c 0.002,0.0668 0.0229,0.12306 0.0573,0.16724 0.0262,0.055 0.0668,0.0992 0.11455,0.13354 z m 1.07398,-1.72789 c 0.01,0 0.0262,0.002 0.0478,0.003 0.01,0.007 0.0229,0.01 0.0429,0.003 0.0164,0.003 0.0334,0.002 0.0524,-0.003 0.0164,-0.002 0.0357,-0.01 0.0622,-0.0196 l 0.96895,1.84723 c -0.0419,0.0357 -0.0727,0.0726 -0.0907,0.10996 -0.0295,0.0419 -0.0455,0.0848 -0.0478,0.12895 h -1.73745 c -0.0196,-0.0442 -0.0393,-0.0871 -0.0573,-0.12895 -0.0262,-0.037 -0.0586,-0.074 -0.0956,-0.10996 z m -1.48924,1.852 c -0.0327,0.0327 -0.056,0.0655 -0.0717,0.10015 -0.0196,0.0357 -0.037,0.0753 -0.0524,0.11946 h -2.5823 c -0.007,-0.0442 -0.0229,-0.0835 -0.0478,-0.11946 -0.0262,-0.0347 -0.0514,-0.0681 -0.0763,-0.10015 l 1.29833,-2.2434 c 0.0164,0 0.0334,0.002 0.0524,0.003 0.0164,0.007 0.0383,0.01 0.0668,0.003 0.0229,0.003 0.0429,0.002 0.0622,-0.003 0.0164,-0.002 0.0357,-0.003 0.0622,-0.003 z m -3.02619,-0.11455 c -0.0295,-0.002 -0.0514,-0.007 -0.0668,-0.0131 -0.0196,-0.002 -0.0406,-0.003 -0.0622,-0.003 -0.0196,0 -0.0357,0.002 -0.0478,0.003 -0.0196,0.007 -0.0347,0.01 -0.0429,0.003 l -0.86393,-1.83292 c 0.0442,-0.0347 0.0821,-0.0789 0.11455,-0.13353 0.0262,-0.0442 0.0442,-0.10015 0.0573,-0.16724 l 2.08588,-0.27688 c 0.0164,0.0455 0.0334,0.0789 0.0524,0.10015 0.0131,0.0327 0.0334,0.0586 0.0622,0.0763 z m -0.4296,0.0956 c -0.0419,0.0294 -0.074,0.0632 -0.0956,0.10014 -0.0327,0.0452 -0.0501,0.092 -0.0524,0.13845 h -1.72789 c -0.019,-0.0406 -0.0394,-0.0822 -0.0573,-0.12404 -0.0262,-0.037 -0.0585,-0.0727 -0.0955,-0.10506 l 0.96895,-1.84245 c 0.0164,0 0.0334,0.002 0.0524,0.003 0.0164,0.007 0.0357,0.01 0.0622,0.003 0.0131,0.003 0.0295,0.002 0.0478,-0.003 0.0131,-0.002 0.0295,-0.003 0.0478,-0.003 z m -1.87585,0.47256 h 1.71355 c 0.0131,0.055 0.0347,0.10146 0.0668,0.13844 0.0229,0.0419 0.0537,0.0753 0.0956,0.10015 l -0.86393,1.83289 c -0.007,0 -0.0164,0 -0.0334,0 -0.0196,0 -0.0357,0 -0.0478,0 -0.0262,0 -0.0465,0 -0.0622,0 -0.0196,0.003 -0.037,0.01 -0.0524,0.0131 l -0.96895,-1.85678 c 0.037,-0.0262 0.0692,-0.0632 0.0955,-0.10506 0.018,-0.037 0.0382,-0.0789 0.0573,-0.12404 z m 2.08587,0.34365 c 0.01,0 0.0229,0.002 0.0429,0.003 0.0131,0.01 0.0294,0.0131 0.0478,0.003 0.0229,0.007 0.0442,0.003 0.0668,-0.003 0.0229,-0.002 0.0429,-0.007 0.0622,-0.0131 l 1.28874,2.23384 c -0.0294,0.0262 -0.0501,0.0537 -0.0622,0.0812 -0.0196,0.0357 -0.037,0.0658 -0.0524,0.0906 l -2.08587,-0.26248 c -0.0131,-0.056 -0.0327,-0.11225 -0.0573,-0.16691 -0.0327,-0.0465 -0.0704,-0.092 -0.11455,-0.13353 z m 0.41526,-0.12404 c 0.0262,-0.0262 0.0501,-0.0622 0.0763,-0.10015 0.0262,-0.0347 0.0406,-0.074 0.0478,-0.11946 h 2.5823 c 0.002,0.0452 0.0196,0.0848 0.0478,0.11946 0.0229,0.0383 0.0478,0.0727 0.0763,0.10015 l -1.28875,2.23387 c -0.0196,0.003 -0.0393,0.002 -0.0573,-0.003 -0.0229,-0.007 -0.0452,-0.01 -0.0668,-0.01 -0.0294,0 -0.0514,0.003 -0.0668,0.01 -0.0196,0.007 -0.0406,0.0131 -0.0622,0.0131 v -0.01 z m 3.02623,0.11455 c 0.0262,0.007 0.0478,0.0131 0.0668,0.0131 0.0164,0.01 0.0357,0.0131 0.0622,0.003 0.0164,0.007 0.0383,0.003 0.0573,-0.003 0.0131,-0.002 0.0295,-0.003 0.0478,-0.003 h -0.0131 l 0.86397,1.83291 c -0.0455,0.0419 -0.0825,0.0871 -0.10997,0.13354 -0.0295,0.055 -0.0455,0.11095 -0.0478,0.16691 l -2.10021,0.26248 c -0.0196,-0.0262 -0.0347,-0.055 -0.0429,-0.0907 -0.0196,-0.0262 -0.0393,-0.055 -0.0573,-0.0812 z m 0.42956,-0.0956 c 0.0347,-0.0262 0.0668,-0.0586 0.0956,-0.10015 0.0262,-0.037 0.0478,-0.0835 0.0668,-0.13844 h 1.73745 c 0.0164,0.0452 0.0347,0.0871 0.0573,0.12404 0.0164,0.0419 0.0501,0.074 0.0956,0.0956 l -0.99285,1.86633 c -0.0196,-0.007 -0.037,-0.01 -0.0524,-0.0131 -0.0196,0 -0.037,0 -0.0524,0 -0.0196,0 -0.0347,0 -0.0429,0 -0.0229,0 -0.0393,0 -0.0478,0 z m 0.01,-5.42711 2.1193,1.54651 c -0.01,0.0262 -0.0164,0.0537 -0.0196,0.0812 -0.01,0.0357 -0.0131,0.0658 -0.0131,0.0907 -0.003,0.0196 -0.002,0.0327 0.003,0.0383 0.007,0.0131 0.01,0.0262 0.01,0.0429 v -0.0131 l -0.78758,0.34846 c -0.0455,-0.0501 -0.0978,-0.0956 -0.15742,-0.13353 -0.0668,-0.0347 -0.13713,-0.0524 -0.21012,-0.0524 -0.0196,0 -0.0347,0 -0.0429,0 -0.0229,0.003 -0.0393,0.01 -0.0478,0.0131 h 0.01 l -0.87352,-1.94747 c 0,0.003 0,0.002 0,-0.003 0,-0.007 0.002,-0.01 0.01,-0.01 z m -0.48208,0.0812 c 0.0262,0.0131 0.0537,0.0229 0.0861,0.0229 0.0262,0.007 0.0537,0.01 0.0861,0.01 0.0131,0.007 0.0294,0.003 0.0478,-0.003 0.01,-0.002 0.0229,-0.003 0.0429,-0.003 l 0.87827,1.94746 c -0.0419,0.0229 -0.0727,0.0514 -0.0907,0.0861 -0.0262,0.0357 -0.0465,0.0727 -0.0622,0.10964 l -2.0954,-0.27688 c -0.003,-0.0406 -0.0131,-0.0825 -0.0295,-0.12404 -0.0196,-0.0406 -0.0406,-0.0763 -0.0619,-0.10506 z m -2.85915,-0.31975 h 2.5823 c 0.002,0.0327 0.0131,0.0632 0.0334,0.0907 0.0164,0.0357 0.0347,0.0655 0.0573,0.0907 l -1.22194,1.64673 c -0.0229,-0.002 -0.0465,-0.007 -0.0717,-0.0131 -0.0327,-0.002 -0.0609,-0.003 -0.0861,-0.003 -0.0357,0 -0.0681,0.002 -0.0956,0.003 -0.0295,0.007 -0.056,0.0164 -0.0812,0.0294 v -0.0131 l -1.20761,-1.64676 c 0.0164,-0.0262 0.0383,-0.0537 0.0573,-0.0861 0.0164,-0.0229 0.0262,-0.0537 0.0334,-0.0956 z m -0.44868,0.3532 c 0.0262,0 0.055,-0.002 0.0907,-0.01 0.0262,-0.002 0.055,-0.01 0.0812,-0.0229 l 1.21235,1.66107 c -0.0327,0.0294 -0.056,0.0645 -0.0717,0.10505 -0.0196,0.0419 -0.0295,0.0835 -0.0334,0.12404 l -2.09544,0.27689 c -0.0196,-0.037 -0.0393,-0.074 -0.0573,-0.10964 -0.0295,-0.0347 -0.056,-0.0632 -0.0812,-0.0861 l 0.87349,-1.94747 c 0.002,0 0.0131,0.002 0.0334,0.003 0.0131,0.01 0.0295,0.0131 0.0478,0.003 z m -0.30077,-0.11455 c 0,0 0,0.003 0,0.01 0,0.007 0.003,0.01 0.0131,0.003 l -0.87826,1.94744 c -0.0196,-0.007 -0.0327,-0.01 -0.0383,-0.0131 -0.0131,0 -0.0262,0 -0.0429,0 -0.0799,0 -0.15022,0.0164 -0.21012,0.0524 -0.0668,0.0383 -0.12044,0.0835 -0.15742,0.13353 l -0.79711,-0.34845 c 0.006,-0.002 0.0108,-0.0131 0.0144,-0.0334 0,-0.01 0,-0.0229 0,-0.0429 -0.004,-0.0262 -0.009,-0.0586 -0.0144,-0.0907 -0.009,-0.0262 -0.0167,-0.0488 -0.019,-0.0717 z m -2.20043,2.00474 0.7971,0.33413 c -0.01,0.0196 -0.0131,0.0357 -0.0131,0.0478 0,0.0196 0,0.0357 0,0.0478 -0.003,0.0645 0.01,0.12534 0.0429,0.18131 0.0262,0.0668 0.0645,0.11815 0.11945,0.15284 l -0.96896,1.84244 c -0.007,0 -0.0118,0 -0.0144,0 -0.01,0 -0.0131,0 -0.01,0 l -0.17182,-2.45341 c 0.0442,-0.0131 0.0871,-0.0347 0.12888,-0.0668 0.037,-0.0262 0.068,-0.0537 0.0907,-0.0857 z m -0.43913,5.81852 -0.76848,-2.35798 c 0.0465,-0.0262 0.0907,-0.0681 0.12888,-0.11946 0.0311,-0.0406 0.0573,-0.093 0.0764,-0.15742 h 0.41526 c 0.0216,0.0762 0.0597,0.14433 0.11455,0.20062 0.0501,0.0609 0.11216,0.10604 0.18616,0.13353 h 0.009 z m -0.14797,-2.86871 h -0.41527 c -0.007,-0.056 -0.0298,-0.11226 -0.0668,-0.16691 -0.0454,-0.0465 -0.0883,-0.0871 -0.12888,-0.11946 l 0.75894,-2.34842 0.1623,2.30067 c -0.08,0.0327 -0.14558,0.0776 -0.19572,0.13353 -0.0549,0.0609 -0.0931,0.12764 -0.11455,0.20062 z m 0.36753,3.03097 0.17183,-2.45341 c -0.004,0 0,0 0.009,0 0.002,0 0.007,0 0.0144,0 l 0.96895,1.84244 c -0.055,0.0455 -0.0943,0.0965 -0.11946,0.15284 -0.0327,0.0645 -0.0465,0.12993 -0.0429,0.19572 0,0.0196 0,0.0327 0,0.0383 0,0.0131 0.003,0.0262 0.0131,0.0429 l -0.79712,0.33413 c -0.0321,-0.037 -0.0644,-0.0694 -0.0955,-0.0956 -0.0358,-0.0164 -0.0776,-0.0383 -0.12411,-0.0573 z m 2.42,2.15749 -2.12883,-1.53218 c 0.002,-0.0262 0.009,-0.0524 0.019,-0.0812 0.006,-0.0262 0.0108,-0.0596 0.0144,-0.0956 0,-0.01 0,-0.0229 0,-0.0429 -0.004,-0.0131 -0.009,-0.0295 -0.0144,-0.0478 v 0.0131 l 0.78759,-0.34846 c 0.0406,0.055 0.093,0.0992 0.15743,0.13354 0.0632,0.0357 0.13353,0.0524 0.21011,0.0524 0.01,0 0.0262,0 0.0478,0 0.01,0 0.0229,-0.003 0.0429,-0.0131 l 0.87826,1.94743 c -0.01,0.01 -0.0131,0.0131 -0.0131,0.0131 z m 0.47256,-0.0812 c -0.0262,-0.002 -0.0537,-0.01 -0.0812,-0.0229 -0.0357,-0.002 -0.0655,-0.007 -0.0907,-0.01 -0.0196,0 -0.0357,0.002 -0.0478,0.003 -0.0196,0.007 -0.0347,0.01 -0.0429,0.003 h 0.01 l -0.87349,-1.94743 c 0.0262,-0.0229 0.0524,-0.0501 0.0812,-0.0861 0.0164,-0.0295 0.0383,-0.0681 0.0573,-0.10964 h 0.01 l 2.08588,0.26248 c 0.002,0.0478 0.0131,0.092 0.0334,0.12895 0.0164,0.0419 0.0393,0.0799 0.0717,0.11455 l -0.21012,0.27688 z m 2.85912,0.31976 h -2.5823 c -0.007,-0.0262 -0.0164,-0.0586 -0.0334,-0.0956 -0.0196,-0.0357 -0.0393,-0.0632 -0.0573,-0.0861 l 1.20761,-1.67062 c 0.0262,0.0196 0.0524,0.0294 0.0812,0.0294 0.0262,0.007 0.0596,0.01 0.0956,0.003 0.0262,0.003 0.055,0.002 0.0907,-0.003 0.0262,0 0.055,-0.01 0.0907,-0.0294 h -0.01 l 1.20761,1.67062 c -0.0229,0.0347 -0.0419,0.0645 -0.0573,0.0906 -0.0196,0.0347 -0.0295,0.0645 -0.0334,0.0907 z m 0.53936,-0.34368 c -0.0196,0.003 -0.0347,0.002 -0.0429,-0.003 -0.0196,-0.002 -0.0357,-0.003 -0.0478,-0.003 -0.0327,0.003 -0.0609,0.007 -0.0861,0.01 -0.0327,0.0131 -0.0609,0.0229 -0.0861,0.0229 l -1.21239,-1.66106 c 0.0262,-0.0347 0.0537,-0.0727 0.0763,-0.11455 0.0164,-0.037 0.0262,-0.0812 0.0295,-0.12895 l 2.0954,-0.26248 c 0.0164,0.0419 0.0357,0.0776 0.0622,0.10506 0.0229,0.0357 0.0478,0.0654 0.0763,0.0907 l -0.8401,1.87586 z m 0.21961,0.10506 c -0.007,0 -0.01,0 -0.01,0 0,0 0,-0.003 0,-0.0131 l 0.0229,-0.0573 0.84963,-1.89016 c 0.002,0.01 0.0164,0.0131 0.0383,0.0131 0.01,0 0.0229,0 0.0429,0 0.0726,0 0.14335,-0.0164 0.21011,-0.0478 0.0596,-0.0262 0.11226,-0.0681 0.15743,-0.12895 v -0.01 l 1.01667,0.43915 z m 1.40811,-2.33887 c -0.003,-0.0164 -0.002,-0.0294 0.003,-0.0429 0.002,-0.007 0.003,-0.0196 0.003,-0.0383 -0.003,-0.0694 -0.0164,-0.13353 -0.0429,-0.1908 -0.0327,-0.056 -0.0727,-0.10964 -0.11946,-0.15743 l 0.98326,-1.85196 c 0.002,0 0.007,0 0.0131,0 0.002,0 0.003,0 0.003,0 l 0.17673,2.73023 z m 1.0835,-2.29589 c 0.0727,-0.0262 0.13844,-0.0668 0.19572,-0.12404 0.0465,-0.0501 0.0812,-0.11586 0.10015,-0.19572 h 0.40573 c 0.0164,0.0645 0.0406,0.11684 0.0763,0.15742 0.0294,0.0514 0.074,0.092 0.12895,0.11946 l -0.75894,2.35798 z m 0,0"
       id="path6171" />
  </g>
</svg>
