<svg id="Layer_1" xmlns="http://www.w3.org/2000/svg" viewBox="0 0 1275 2000" width="1594" height="2500"><style>.st0{fill:url(#SVGID_1_)}</style><linearGradient id="SVGID_1_" gradientUnits="userSpaceOnUse" x1="999.994" y1="2000" x2="999.994" y2="-.01" gradientTransform="matrix(1 0 0 -1 -362.5 2000)"><stop offset="0" stop-color="#6cfdcc"/><stop offset="1" stop-color="#5a89f9"/></linearGradient><path class="st0" d="M0 0h648c65.5 10.4 132.7 1.1 197.7 15 144.8 26.6 275.9 117.7 352 243.6 90 145.8 101.8 335.9 33.3 492.6-62 144.2-191.7 257.1-343.2 298-96.2 27.8-197.2 17.4-296 19.3 169.2 280.3 338.1 560.9 506.6 841.8-44.1 30.8-98.1 49.4-134.6 89.8h-5.7c-219.2-366.6-440.6-731.9-660.6-1098 156.2-.8 312.5 1.2 468.6-1 180.2-4.9 337.8-164.2 341.6-344.4 11.8-155.7-89.2-310.9-236.9-362.1-61.2-23.9-127.9-22.8-192.6-22.1-226.1 0-452.2 0-678.3-.1"/></svg>