
<svg xmlns="http://www.w3.org/2000/svg" version="1.1" xmlns:xlink="http://www.w3.org/1999/xlink" preserveAspectRatio="none" x="0px" y="0px" width="630px" height="630px" viewBox="0 0 630 630">
<defs>
<g id="Layer0_0_FILL">
<path fill="#000000" stroke="none" d="
M 492.2 105.45
Q 489.3 103.75 486.5 102.85
L 486.2 102.7
Q 419.2 86.5 271.85 50.6 144.4 19.55 80.65 4.1 77.4 3.2 75.65 2.75 69.85 1.15 66.4 0.55 60.85 -0.35 56.15 0.25 53.3 0.65 50.65 2.3
L 48.9 3.8
Q 45.85 6.7 43.9 11.75
L 43.45 12.95 43.45 19.75 43.75 20.75
Q 68.95 91.5 104.65 190.7 125 247.35 165.25 359.15 180.6 401.8 211.95 488.85 240.25 567.45 259 619.7 260.4 624.05 264.25 626.85 268.05 629.55 273.15 630
L 274.65 630
Q 279.4 630 283.35 627.85 287.3 625.65 289.4 621.9
L 406.35 451.4
Q 420.3 431.05 449.05 389.1 477.3 347.9 491.8 326.8 503.45 309.8 526.8 275.7 548.4 244.1 555.95 233.2 572.55 209.05 585.4 190.55
L 586.45 189.05 586.45 187.3
Q 586.95 181.35 585.85 176.75 584.1 169.55 578.45 165.9 552.5 147.75 539.1 138.35 515.9 122.1 498.9 110.05 497.75 109.2 497 108.75 494.2 106.65 492.2 105.45
M 514.4 161.6
Q 525.4 169.4 537.9 178 499.2 197.65 441.45 228.05 434.45 231.7 399.9 249.75 374.2 263.2 357.75 271.75
L 407.05 218.9
Q 421.85 202.95 469.95 151.4
L 470.4 150.95
Q 471.6 149.4 473.35 147.5 474.4 146.4 476.75 144.05 477.55 143.2 479.25 141.55 480.75 140.05 481.75 138.85 502.4 153.1 514.4 161.6
M 455.8 129.85
Q 437.75 149.1 413.05 175.6 384.75 206.05 370.9 220.95 341.1 253.25 306.25 290.5 249.4 221.5 179.55 137.55 141.6 91.9 122.7 69.2
L 122.55 69.05
Q 120 66.1 116.25 61.5 112.1 56.35 110 53.85 108.4 51.8 105.95 48.8 103.15 45.5 101.75 43.8 122.4 49.15 153.15 56.35 182.6 63.35 198.75 67.4
L 455.8 129.85
M 324.45 317.45
Q 326.4 316.55 327.8 315.7 396 280 430.25 262.3 472.4 240.4 534.05 208.1 482.85 282.25 440 345.1 426.8 364.35 399.9 403.55 376.6 437.5 359.4 462.45 353.5 471.1 343.25 486.05 331.5 503.15 327.2 509.4 303.95 543.05 291.45 561.65 293.6 536.2 296.65 508.7 298.3 493.05 299.15 485.2 300.6 471.15 301.5 461.55 304.15 436.2 305.5 423.95 308.2 398.1 308.65 394.1 310.4 376.9 311.55 364
L 312 360.45
Q 313.35 348.55 314.1 341.15 315.25 330.35 315.85 321.5 318.7 319.9 321.15 318.95 322.25 318.45 324.45 317.45
M 90.8 78.65
Q 86.85 67.85 85.05 62.7 156.7 149.15 204.2 206.2 205.8 208.05 234.55 242.65 252.85 264.65 264.9 279.25 268.9 283.9 276.7 293.45 279.2 296.45 284.3 302.65 288.8 308.1 292.2 311.9 291.2 320.55 289.7 334.7 287.9 352.2 287.35 357.2 285.4 376.9 284.1 388.35
L 284.1 388.5
Q 283.8 392.7 283.15 398.45 282.8 401.75 282 408.3
L 278.45 438.7
Q 276.75 458.2 274.15 483.5 273.05 493.95 269.45 527.85 268.75 534.55 267.55 546.2 266.2 559.65 265.65 564.75 265.2 563.5 264.45 561.45 263.5 558.85 263.25 558.3 260.1 549.85 256.75 540.1
L 165.9 287.5
Q 120.85 162.25 90.8 78.65 Z"/>
</g>
</defs>

<g transform="matrix( 1, 0, 0, 1, 0,0) ">
<use xlink:href="#Layer0_0_FILL"/>
</g>
</svg>
