<?xml version="1.0" encoding="utf-8"?>
<!-- Generator: Adobe Illustrator 18.0.0, SVG Export Plug-In . SVG Version: 6.00 Build 0)  -->
<!DOCTYPE svg PUBLIC "-//W3C//DTD SVG 1.1//EN" "http://www.w3.org/Graphics/SVG/1.1/DTD/svg11.dtd">
<svg version="1.1" id="Layer_1" xmlns="http://www.w3.org/2000/svg" xmlns:xlink="http://www.w3.org/1999/xlink" x="0px" y="0px"
	 viewBox="0 0 64 64" enable-background="new 0 0 64 64" xml:space="preserve">
<g transform="translate(0.000000,64.000000) scale(0.100000,-0.100000)">
	<path fill="#ED4D50" d="M113.3,555.9C53.8,531.3-1.8,464.1,9.8,431.7c7.8-18.1,15.5-14.2,50.5,19.4c23.3,23.3,55.6,41.4,71.2,41.4
		c37.5,0,37.5-31.1-2.6-207C95.2,140.6,99.1,108.2,149.5,73.3C220.7,22.9,297,61.7,370.8,187.2l23.3,40.1l-6.5-42.7
		c-9.1-55.6,22-116.4,63.4-126.8c50.5-12.9,97,5.2,146.2,54.3c37.5,37.5,41.4,47.9,27.2,64.7c-14.2,18.1-16.8,18.1-27.2,0
		c-16.8-28.5-82.8-60.8-106.1-51.8c-27.2,10.4-27.2,91.9,0,244.5c25.9,147.5,25.9,172.1,0,198c-20.7,20.7-23.3,20.7-37.5-3.9
		c-7.8-14.2-24.6-72.5-36.2-129.4c-40.1-196.7-111.3-310.5-187.6-301.5c-47.9,5.2-50.5,31.1-16.8,176c25.9,110,31.1,205.7,14.2,229
		C201.3,574,166.4,579.2,113.3,555.9z"/>
</g>
</svg>
