<?xml version="1.0" standalone="no"?>
<!DOCTYPE svg PUBLIC "-//W3C//DTD SVG 20010904//EN"
 "http://www.w3.org/TR/2001/REC-SVG-20010904/DTD/svg10.dtd">
<svg version="1.0" xmlns="http://www.w3.org/2000/svg"
 width="64.000000pt" height="64.000000pt" viewBox="0 0 64.000000 64.000000"
 preserveAspectRatio="xMidYMid meet">
<metadata>
Created by potrace 1.15, written by Peter Selinger 2001-2017
</metadata>
<g transform="translate(0.000000,64.000000) scale(0.100000,-0.100000)"
fill="#ED4D50" stroke="none">
<path d="M164 519 c-46 -19 -89 -71 -80 -96 6 -14 12 -11 39 15 18 18 43 32
55 32 29 0 29 -24 -2 -160 -26 -112 -23 -137 16 -164 55 -39 114 -9 171 88
l18 31 -5 -33 c-7 -43 17 -90 49 -98 39 -10 75 4 113 42 29 29 32 37 21 50
-11 14 -13 14 -21 0 -13 -22 -64 -47 -82 -40 -21 8 -21 71 0 189 20 114 20
133 0 153 -16 16 -18 16 -29 -3 -6 -11 -19 -56 -28 -100 -31 -152 -86 -240
-145 -233 -37 4 -39 24 -13 136 20 85 24 159 11 177 -20 28 -47 32 -88 14z"/>
</g>
</svg>
