<svg xmlns="http://www.w3.org/2000/svg" width="2000" height="2000" viewBox="0 0 2000 2000"><g fill="#1d2227"><path d="M965.81,0h59.92c37.59,2.47,75.25,4.7,112.59,10,127.82,18,252.47,60.5,363.62,126.26-25.58,20.33-53,38.21-79.23,57.66C1245.4,320.83,1068.53,448.4,891,575c-14.38-11.92-26.84-25.91-40.48-38.62C810,497.58,770.62,457.64,729.76,419.3c-14.9,5.38-28.5,13.64-42.4,21.11-92.75,51.75-171.68,127.17-229.15,216.33C383.39,562.31,311.68,465.43,240.89,368c-2.22-3.25-4.2-6.62-6.22-10a970.52,970.52,0,0,1,86.1-90.39C474,125,673,31.92,881.17,7.52,909.27,3.7,937.64,3,965.81,0Z"/><path d="m1451.67 373.94c62.74-47.32 125.58-94.54 189.83-139.77 131.87 109.7 234.21 254.41 294.66 414.83 76.59 201.43 84.37 427.9 22.78 634.31a986.68 986.68 0 0 1 -89 208.6c-5.87-5-10-11.6-14.58-17.64q-181.61-239.92-363.19-479.8c-23.51-31.42-47.71-62.31-70.85-94 53-56.93 108.28-111.87 161.46-168.68a645.32 645.32 0 0 0 -155.94 -210.36c-25.86-23.55-54.36-43.82-83.16-63.52 35.1-29.08 71.86-56.15 107.99-83.97"/><path d="M70.19,633.61c18-44.53,38.07-88.5,63-129.61,35.25,44.38,68.91,90.06,103.5,135Q401.2,854.48,565.56,1070c7.18,9.46,14.9,18.52,21.07,28.7-55.34,57.76-112.11,114.16-167.22,172.15,13.29,31.4,31.29,60.6,50.08,89a646.31,646.31,0,0,0,99.37,114.52c27,25.23,57.15,46.69,87.46,67.72-26.41,22.19-54.28,42.59-81.52,63.72Q502,1661.53,428,1715.67c-23.34,16.53-45.72,34.44-69.79,49.91-155.26-129.79-269.54-307.77-322.63-503C14,1185.21,3.5,1105.16,0,1025V975c1.16-17.33,2.24-34.67,3.45-52A993.8,993.8,0,0,1,70.19,633.61Z"/><path d="m1476.16 1429.79c24.75-26.77 45.9-56.5 66.54-86.44 22.33 27.47 43.63 55.8 65.28 83.82 53.63 70.49 106.72 141.38 158.06 213.53-14.65 20.43-32.78 38.14-50 56.43-143.68 147.9-334 250-537.14 286.57-48 9.21-96.85 13.11-145.62 16.3h-72.43c-21.48-2.72-43.15-3.17-64.63-5.64-139.72-14.69-276.66-58.76-397.63-130.36 41.42-31.57 83.43-62.36 125.05-93.71q238.29-177.74 476.41-355.75c26.94 24.83 52.37 51.27 78.88 76.6 31 29.66 60.8 60.73 92.45 89.76 77.69-35.54 147.36-87.99 204.78-151.11"/></g></svg>