
<svg xmlns="http://www.w3.org/2000/svg" version="1.1" xmlns:xlink="http://www.w3.org/1999/xlink" preserveAspectRatio="none" x="0px" y="0px" width="50px" height="50px" viewBox="0 0 50 50">
<defs>
<linearGradient id="Gradient_1" gradientUnits="userSpaceOnUse" x1="35.050000000000004" y1="1.1374999999999993" x2="26.150000000000002" y2="29.8625" spreadMethod="pad">
<stop  offset="3.9215686274509802%" stop-color="#2CF4E1"/>

<stop  offset="100%" stop-color="#2CB2E1"/>
</linearGradient>

<linearGradient id="Gradient_2" gradientUnits="userSpaceOnUse" x1="37.1625" y1="20.5375" x2="50.237500000000004" y2="29.9625" spreadMethod="pad">
<stop  offset="3.9215686274509802%" stop-color="#2CF4E1"/>

<stop  offset="100%" stop-color="#2CB2E1"/>
</linearGradient>

<linearGradient id="Gradient_3" gradientUnits="userSpaceOnUse" x1="15.037500000000001" y1="18.3125" x2="33.6625" y2="44.5875" spreadMethod="pad">
<stop  offset="0%" stop-color="#2CE5E1"/>

<stop  offset="100%" stop-color="#2CB2E1"/>
</linearGradient>

<linearGradient id="Gradient_4" gradientUnits="userSpaceOnUse" x1="27.45" y1="43.962500000000006" x2="27.45" y2="-5.862500000000001" spreadMethod="pad">
<stop  offset="0%" stop-color="#000000"/>

<stop  offset="100%" stop-color="#3B3B3B"/>
</linearGradient>

<linearGradient id="Gradient_5" gradientUnits="userSpaceOnUse" x1="-0.02500000000000213" y1="25.45" x2="54.825" y2="25.45" spreadMethod="pad">
<stop  offset="3.9215686274509802%" stop-color="#2CF4E1"/>

<stop  offset="100%" stop-color="#2CB2E1"/>
</linearGradient>

<g id="Layer0_0_MEMBER_0_FILL">
<path fill="url(#Gradient_1)" stroke="none" d="
M 29.2 4.8
Q 23 4.8 18.6 9.35 14.2 13.9 14.2 20.3 14.2 26.75 18.6 31.3 22.95 35.8 29.2 35.8 35.4 35.8 39.8 31.3 44.2 26.75 44.2 20.3 44.2 13.9 39.8 9.35 35.4 4.8 29.2 4.8 Z"/>
</g>

<g id="Layer0_0_MEMBER_1_FILL">
<path fill="url(#Gradient_2)" stroke="none" d="
M 45.65 26.95
L 46.65 18.85 43.75 15.45
Q 43.75 15.3 39.75 15.75 41.35 17.95 41.35 20.85 41.35 24.15 38.95 26.85
L 39.85 30.45 42.65 30.45 45.65 26.95 Z"/>
</g>

<g id="Layer0_0_MEMBER_2_FILL">
<path fill="url(#Gradient_3)" stroke="none" d="
M 11.75 11.45
L 6.65 24.5 7.05 30.8 7.55 32.9 8.7 35
Q 10.3 37.55 12.3 39.95 18.75 47.55 27.3 50.5 30.5 49.15 34.4 46.6 42.15 41.55 45.55 35.75
L 37.55 28.85
Q 36.65 29.6 35.05 30.35 31.85 31.85 28.45 31.85 23.8 31.85 20.05 29.35 15.65 26.4 15.65 21.65 15.65 17.35 19.45 14.35 21.35 12.9 23.25 12.25
L 20.05 11.45 11.75 11.45 Z"/>
</g>

<g id="Layer0_0_MEMBER_3_FILL">
<path fill="url(#Gradient_4)" stroke="none" d="
M 52.85 17.1
Q 53 17.15 53.05 17 51.2 14.65 47.2 11.6 39.15 5.55 27.65 1.4 16.35 5.35 8 11.55 3.8 14.7 1.85 17 2.6 21.6 5.9 29.5 6 29.85 7.25 32 8.65 34.45 9.65 35.8 8.5 32.95 8.4 32.7 7.75 30.75 7.75 28.7 7.75 22.05 12.15 17.3 16.55 12.55 22.75 12.3
L 23.35 12.3 21.35 10.2 26.65 10.3
Q 33.2 11.2 39.65 15.2
L 39.75 15.5
Q 39.8 15.9 39.65 16.5
L 42.1 18.15
Q 44.65 20.3 44.95 22.9 45.3 25.8 43.8 27.8 42.5 29.55 40.75 29.8 41.05 29.4 41.1 28.85 41.2 27.75 40.15 27.1 39.55 26.8 38.95 26.8 36.95 26.8 36 28.65 35.55 29.6 35.45 30.5
L 35.5 31.95
Q 35.7 33 36.4 33.85 38.5 36.55 44.35 36.5 45.55 35.1 46.9 33.1 49.6 29.05 50.35 25.9 51.05 23.2 51.35 21.6
L 52.85 17.1 Z"/>
</g>

<g id="Layer0_0_MEMBER_4_FILL">
<path fill="#282828" stroke="none" d="
M 32.6 15.6
Q 33.85 16.55 35.7 16.9
L 36.05 16.7
Q 36.45 16.45 36.75 16.15 37.75 16.25 38.75 16.65 36 14.85 31.75 14.85 31.75 14.8 32.6 15.6 Z"/>
</g>

<g id="Layer0_0_MEMBER_5_FILL">
<path fill="url(#Gradient_5)" stroke="none" d="
M 54.1 15.85
L 54.2 15.15 53.65 14.75
Q 47.1 9 38.15 4.6 33.15 2.1 28.25 0.4
L 28 0.3 27.35 0.15 26.6 0.45
Q 22 1.95 16.7 4.6 7.3 9.2 1.2 14.7
L 1 14.9 0.65 15.1 0.8 15.8
Q 0.8 16.55 1 17 2.65 24.25 5.7 30.1 8.7 36.65 13.6 41.75 19.25 47.7 26.7 50.45
L 27 50.5 27.5 50.75 28 50.5 28.2 50.55
Q 35.4 47.9 41.3 41.85 46.1 36.85 49.3 30.25 51.45 25.9 53.1 20.25 53.6 18.35 54.1 15.85
M 51.55 16
Q 51.05 18.4 50.5 20.4 48.7 25.85 47.05 29 43.95 35.55 39.55 40 34.2 45.7 27.35 48 20.4 45.5 15.15 39.95 10.9 35.55 7.65 29 5.7 25.25 4.25 20.4 3.5 17.85 3.15 16 9.65 10.5 18.35 6.35 21.05 5.05 24.35 3.75 25.55 3.25 27.35 2.65
L 30.35 3.75
Q 33.55 4.95 36.35 6.35 45.15 10.5 51.55 16 Z"/>
</g>
</defs>

<g transform="matrix( 0.9337005615234375, 0, 0, 0.93377685546875, 0.05,1) ">
<use xlink:href="#Layer0_0_MEMBER_0_FILL"/>
</g>

<g transform="matrix( 0.9337005615234375, 0, 0, 0.93377685546875, 0.05,1) ">
<use xlink:href="#Layer0_0_MEMBER_1_FILL"/>
</g>

<g transform="matrix( 0.9337005615234375, 0, 0, 0.93377685546875, 0.05,1) ">
<use xlink:href="#Layer0_0_MEMBER_2_FILL"/>
</g>

<g transform="matrix( 0.9337005615234375, 0, 0, 0.93377685546875, 0.05,1) ">
<use xlink:href="#Layer0_0_MEMBER_3_FILL"/>
</g>

<g transform="matrix( 0.9337005615234375, 0, 0, 0.93377685546875, 0.05,1) ">
<use xlink:href="#Layer0_0_MEMBER_4_FILL"/>
</g>

<g transform="matrix( 0.9337005615234375, 0, 0, 0.93377685546875, 0.05,1) ">
<use xlink:href="#Layer0_0_MEMBER_5_FILL"/>
</g>
</svg>
