
<svg xmlns="http://www.w3.org/2000/svg" version="1.1" xmlns:xlink="http://www.w3.org/1999/xlink" preserveAspectRatio="none" x="0px" y="0px" width="240px" height="240px" viewBox="0 0 240 240">
<defs>
<g id="Layer1_0_FILL">
<path fill="#3D3D3D" stroke="none" d="
M 234.9 30.7
L 210.5 6.3
Q 203.1 -1.05 188.35 0.2 173.9 1.75 153.8 11.65 109.55 35.3 72.7 72.9 34.85 110 11.45 154.25 1.55 174.1 0.25 188.55 -1.25 203.3 6.1 210.7
L 30.5 235.1
Q 37.9 241.7 48.55 241.2 68.65 240.15 86.95 229.75 131.7 206.1 168.05 168.5 205.9 131.9 229.55 87.15 250.15 46.2 234.9 30.7
M 205.9 10.9
Q 211.75 16.7 210 29.7 208.45 42.4 199.55 59.95 175.4 104.15 139.05 139.5 103.95 175.6 59.75 199.75 42.2 208.65 29.5 210.2 16.5 211.95 10.7 206.1 5.1 200.25 6.6 187.3 8.4 174.6 17.05 157.05 40.95 113.05 77.3 77.5 112.85 41.15 156.85 17.25 173.1 8.1 192.45 6.55 199.55 5.8 205.9 10.9
M 216.1 39.6
L 214.55 38.85
Q 216.85 29.95 216.6 21.8
L 230.3 35.3
Q 236.65 41.9 233.85 57.4
L 216.1 39.6
M 188.35 91.2
Q 196.5 79.25 201.1 70.35
L 220.9 90.2
Q 214.3 101.9 207.95 111.05
L 188.35 91.2
M 223.95 84.1
L 204.65 65 204.4 64.5 205.15 62.75
Q 208.95 55.85 212.5 45.45
L 231.85 64.5
Q 228.8 74.7 223.95 84.1
M 203.9 116.1
L 204.4 116.35
Q 195.5 128.05 189.65 135.2
L 169.8 115.35
Q 178.2 105.45 184.55 96.55
L 203.9 116.1
M 165.75 120.45
L 185.55 140.25 166.5 160.85 146.7 141.05 165.75 120.45
M 97.6 183.75
Q 108.8 175.85 116.45 169
L 136.25 188.8
Q 127.85 195.95 117.2 203.55
L 116.7 202.55 97.6 183.75
M 141.35 184.5
L 121.5 164.65
Q 131.95 156.05 142.1 145.6
L 161.95 165.45
Q 151.75 175.85 141.35 184.5
M 85.4 223.4
L 84.15 224.15
Q 74.5 229 65.35 231.8 65.35 230.5 64.55 229.75
L 46.75 212.2
Q 54.15 209.4 62.55 205.35
L 65.85 203.8 85.4 223.4
M 112.1 207.4
Q 99.4 216 91 220.35
L 90 218.8 71.7 200.5
Q 82.1 194.95 92.3 187.55
L 112.1 207.4
M 35.1 230.5
L 21.6 216.8 24.15 216.8
Q 32.3 216.8 39.9 214.5
L 59 233.55
Q 42.45 237.4 35.1 230.5
M 182.25 65.8
Q 202.6 31.7 191.65 20.8 180.75 9.85 146.7 30.2 115.65 48.75 82.1 82.3 48.55 115.85 30 146.9 9.65 180.95 20.6 191.85 24.9 195.95 30.75 195.45 46.75 195.45 75.75 175.85 102.45 157.8 129.9 130.35 163.7 96.55 182.25 65.8
M 181.25 23.35
Q 184.8 23.35 187.1 25.35 194.2 32.5 177.45 61.2 155.05 96.55 125.6 125.8 96.35 155.25 61 177.65 32.3 194.4 25.15 187.3 21.35 183.5 24.9 172.55 27.7 163.15 34.55 151.45 56.45 116.35 86.7 86.9 116.15 56.65 151.25 34.75 170.85 23.35 181.25 23.35 Z"/>

<path fill="#999999" stroke="none" d="
M 21.6 216.8
L 35.1 230.5
Q 42.45 237.4 59 233.55
L 39.9 214.5
Q 32.3 216.8 24.15 216.8
L 21.6 216.8
M 91 220.35
Q 99.4 216 112.1 207.4
L 92.3 187.55
Q 82.1 194.95 71.7 200.5
L 90 218.8 91 220.35
M 84.15 224.15
L 85.4 223.4 65.85 203.8 62.55 205.35
Q 54.15 209.4 46.75 212.2
L 64.55 229.75
Q 65.35 230.5 65.35 231.8 74.5 229 84.15 224.15
M 121.5 164.65
L 141.35 184.5
Q 151.75 175.85 161.95 165.45
L 142.1 145.6
Q 131.95 156.05 121.5 164.65
M 116.45 169
Q 108.8 175.85 97.6 183.75
L 116.7 202.55 117.2 203.55
Q 127.85 195.95 136.25 188.8
L 116.45 169
M 185.55 140.25
L 165.75 120.45 146.7 141.05 166.5 160.85 185.55 140.25
M 204.4 116.35
L 203.9 116.1 184.55 96.55
Q 178.2 105.45 169.8 115.35
L 189.65 135.2
Q 195.5 128.05 204.4 116.35
M 204.65 65
L 223.95 84.1
Q 228.8 74.7 231.85 64.5
L 212.5 45.45
Q 208.95 55.85 205.15 62.75
L 204.4 64.5 204.65 65
M 201.1 70.35
Q 196.5 79.25 188.35 91.2
L 207.95 111.05
Q 214.3 101.9 220.9 90.2
L 201.1 70.35
M 214.55 38.85
L 216.1 39.6 233.85 57.4
Q 236.65 41.9 230.3 35.3
L 216.6 21.8
Q 216.85 29.95 214.55 38.85
M 210 29.7
Q 211.75 16.7 205.9 10.9 199.55 5.8 192.45 6.55 173.1 8.1 156.85 17.25 112.85 41.15 77.3 77.5 40.95 113.05 17.05 157.05 8.4 174.6 6.6 187.3 5.1 200.25 10.7 206.1 16.5 211.95 29.5 210.2 42.2 208.65 59.75 199.75 103.95 175.6 139.05 139.5 175.4 104.15 199.55 59.95 208.45 42.4 210 29.7
M 191.65 20.8
Q 202.6 31.7 182.25 65.8 163.7 96.55 129.9 130.35 102.45 157.8 75.75 175.85 46.75 195.45 30.75 195.45 24.9 195.95 20.6 191.85 9.65 180.95 30 146.9 48.55 115.85 82.1 82.3 115.65 48.75 146.7 30.2 180.75 9.85 191.65 20.8
M 187.1 25.35
Q 184.8 23.35 181.25 23.35 170.85 23.35 151.25 34.75 116.15 56.65 86.7 86.9 56.45 116.35 34.55 151.45 27.7 163.15 24.9 172.55 21.35 183.5 25.15 187.3 32.3 194.4 61 177.65 96.35 155.25 125.6 125.8 155.05 96.55 177.45 61.2 194.2 32.5 187.1 25.35 Z"/>
</g>
</defs>

<g transform="matrix( 1, 0, 0, 1, 0,0) ">
<use xlink:href="#Layer1_0_FILL"/>
</g>
</svg>
