
<svg xmlns="http://www.w3.org/2000/svg" version="1.1" xmlns:xlink="http://www.w3.org/1999/xlink" preserveAspectRatio="none" x="0px" y="0px" width="240px" height="240px" viewBox="0 0 240 240">
<defs>
<g id="erc20_0_Layer0_0_FILL">
<path fill="#666666" stroke="none" d="
M 17.85 95.7
L 26.85 76.45 47.85 86.25 50.55 80.6 29.45 70.75 37.75 53 60.75 63.8 63.45 58.05 33.95 44.25 8.7 98.45 38.6 112.35 41.3 106.65 17.85 95.7
M 150.4 98.15
Q 147.7 96.3 143.05 94.15 138.75 92.1 133.8 91.7 131.45 91.45 128.95 91.9 126.5 92.2 124.05 93.1 121.55 94 119.15 95.55 116.9 97.05 114.6 99.25 110.1 103.6 106.55 111.15 103.15 118.45 102.5 124.55 102.2 127.65 102.5 130.4 102.7 133.2 103.5 135.6 105.1 140.55 108.55 144.15
L 112.35 147.45 116.8 150.1
Q 120.9 152 124.75 152.95 128.65 153.9 131.8 153.2
L 132.65 147.35
Q 130.4 147.7 127.45 147.2 124.45 146.65 121 145.1 117.15 143.25 114.55 140.35 111.9 137.4 110.75 133.5 109.65 129.6 110.2 124.65 110.7 119.9 113.35 114.35 116.2 108.15 119.6 104.55 123.1 101 126.75 99.45 130.45 98.05 134.05 98.35 137.75 98.65 140.85 100.1 147.7 103.35 150.55 106.85
L 154.8 101.9
Q 153.15 100.05 150.4 98.15
M 95.8 73.35
Q 92.95 71.15 89.45 69.5
L 82.25 66.45 75.2 64.2 50.15 117.8 56.55 120.8 68 96.3 75 100.95 79.05 131.3 86.55 134.8 83.05 107.1 80.75 102.55
Q 86.65 103.7 91.95 101.4 97.3 99 100.25 92.65 102.15 88.6 102.05 85.05 101.9 81.5 100.25 78.55 98.7 75.7 95.8 73.35
M 87 75.15
Q 92.1 77.45 93.65 81.55 94.5 83.6 94.4 85.6 94.35 87.65 93.35 89.7 92.05 92.55 90.2 94.15 88.35 95.8 86 96.3 81.3 97.3 76 94.8
L 70 91.95 79.25 72.1 80.8 72.5 87 75.15
M 188.5 119.85
Q 187.55 117.3 185.4 115.1 183.3 112.95 180 111.4 175.7 109.4 171.45 108.95 167.05 108.6 163.3 109.65
L 163.8 115.3
Q 166.6 114.65 169.85 114.75 173.2 114.8 176.15 116.2 178.35 117.2 179.7 118.65 181.05 120 181.55 121.8 182.1 123.55 181.85 125.35 181.7 127.15 180.85 129.1 179.25 132.3 176.35 135.45 173.45 138.4 169.65 141.2 165.85 143.9 161.7 146.35
L 153.45 150.85 139.55 156.8 138.45 159 169.2 173.4 171.95 167.65 155.1 159.8 149.75 158.35 149.9 158.05 155.2 156.55 164.95 151.5
Q 169.9 148.75 174.25 145.6 178.8 142.35 182.25 138.7 185.7 135.2 187.65 131.1 188.95 128.15 189.2 125.35 189.4 122.45 188.5 119.85
M 222.5 131.2
Q 218.2 129.25 214.05 129.45 210 129.7 206.1 132.15 198.25 137.1 191.8 151 185.55 164.3 186.4 173.6 186.8 178.25 189.35 181.65 191.85 185.1 196.4 187.3 205.15 191.35 213 186.35 216.85 183.9 220.45 179.2 224 174.5 227.25 167.55 233.9 153.4 232.85 144.5 232.35 140.1 229.8 136.75 227.2 133.4 222.5 131.2
M 208.9 138.15
Q 211.5 136.05 214.3 135.65 217.15 135.3 220 136.65 223.2 138.15 224.55 140.75 226.05 143.45 225.95 147.05 225.9 150.7 224.5 155.2 223.2 159.55 220.85 164.55 218.15 170.4 215.45 174.3 212.8 178.35 210.1 180.4 204.9 184.55 198.95 181.8 196 180.4 194.7 177.8 193.35 175.1 193.35 171.55 193.3 167.9 194.55 163.45 195.85 158.95 198.15 154 200.85 148.25 203.55 144.25 206.25 140.25 208.9 138.15 Z"/>
</g>
</defs>

<g transform="matrix( 1, 0, 0, 1, 8.7,44.25) ">
<g transform="matrix( 1, 0, 0, 1, -8.7,-44.25) ">
<use xlink:href="#erc20_0_Layer0_0_FILL"/>
</g>
</g>

<g transform="matrix( 0.571929931640625, 0, 0, 0.571929931640625, 111.7,-0.3) ">
<g transform="matrix( 1, 0, 0, 1, -8.7,-44.25) ">
<use xlink:href="#erc20_0_Layer0_0_FILL"/>
</g>
</g>

<g transform="matrix( 0.6477203369140625, 0, 0, 0.6477203369140625, 5.9,150.75) ">
<g transform="matrix( 1, 0, 0, 1, -8.7,-44.25) ">
<use xlink:href="#erc20_0_Layer0_0_FILL"/>
</g>
</g>

<g transform="matrix( 0.475494384765625, 0, 0, 0.475494384765625, 164.3,189.1) ">
<g transform="matrix( 1, 0, 0, 1, -8.7,-44.25) ">
<use xlink:href="#erc20_0_Layer0_0_FILL"/>
</g>
</g>

<g transform="matrix( 0.34796142578125, 0, 0, 0.34796142578125, 151.2,68.05) ">
<g transform="matrix( 1, 0, 0, 1, -8.7,-44.25) ">
<use xlink:href="#erc20_0_Layer0_0_FILL"/>
</g>
</g>

<g transform="matrix( 0.34796142578125, 0, 0, 0.34796142578125, 73.15,30.15) ">
<g transform="matrix( 1, 0, 0, 1, -8.7,-44.25) ">
<use xlink:href="#erc20_0_Layer0_0_FILL"/>
</g>
</g>

<g transform="matrix( 0.571929931640625, 0, 0, 0.571929931640625, -29.65,189.1) ">
<g transform="matrix( 1, 0, 0, 1, -8.7,-44.25) ">
<use xlink:href="#erc20_0_Layer0_0_FILL"/>
</g>
</g>

<g transform="matrix( 0.34796142578125, 0, 0, 0.34796142578125, 68.55,144.35) ">
<g transform="matrix( 1, 0, 0, 1, -8.7,-44.25) ">
<use xlink:href="#erc20_0_Layer0_0_FILL"/>
</g>
</g>

<g transform="matrix( 0.34796142578125, 0, 0, 0.34796142578125, -29.65,93.95) ">
<g transform="matrix( 1, 0, 0, 1, -8.7,-44.25) ">
<use xlink:href="#erc20_0_Layer0_0_FILL"/>
</g>
</g>

<g transform="matrix( 0.2677154541015625, 0, 0, 0.2677154541015625, 179.95,-6.3) ">
<g transform="matrix( 1, 0, 0, 1, -8.7,-44.25) ">
<use xlink:href="#erc20_0_Layer0_0_FILL"/>
</g>
</g>

<g transform="matrix( 0.2677001953125, 0, 0, 0.2677001953125, 42.6,-15.9) ">
<g transform="matrix( 1, 0, 0, 1, -8.7,-44.25) ">
<use xlink:href="#erc20_0_Layer0_0_FILL"/>
</g>
</g>

<g transform="matrix( 0.2677001953125, 0, 0, 0.2677001953125, 8.5,3.45) ">
<g transform="matrix( 1, 0, 0, 1, -8.7,-44.25) ">
<use xlink:href="#erc20_0_Layer0_0_FILL"/>
</g>
</g>

<g transform="matrix( 0.2677001953125, 0, 0, 0.2677001953125, -35.5,15.15) ">
<g transform="matrix( 1, 0, 0, 1, -8.7,-44.25) ">
<use xlink:href="#erc20_0_Layer0_0_FILL"/>
</g>
</g>

<g transform="matrix( 0.2677001953125, 0, 0, 0.2677001953125, -47.5,46.25) ">
<g transform="matrix( 1, 0, 0, 1, -8.7,-44.25) ">
<use xlink:href="#erc20_0_Layer0_0_FILL"/>
</g>
</g>

<g transform="matrix( 0.2677001953125, 0, 0, 0.2677001953125, 221.6,180.15) ">
<g transform="matrix( 1, 0, 0, 1, -8.7,-44.25) ">
<use xlink:href="#erc20_0_Layer0_0_FILL"/>
</g>
</g>

<g transform="matrix( 0.2677001953125, 0, 0, 0.2677001953125, 153.2,223.2) ">
<g transform="matrix( 1, 0, 0, 1, -8.7,-44.25) ">
<use xlink:href="#erc20_0_Layer0_0_FILL"/>
</g>
</g>
</svg>
